# xmcd CD database file
#
# Track frame offsets:
#	150
#	43649
#	80498
#	126577
#	172549
#	232090
#	265704
#
# Disc length: 4637 seconds
#
# Revision: 0
# Processed by: cddbd v1.5.2PL0 Copyright (c) Steve Scherf et al.
# Submitted via: CDex 1.81
#
DISCID=54121b07
DTITLE=John Coltrane - The Blowin`Session (1957) and Black Pearls (1958)
DYEAR=1900
DGENRE=Jazz
TTITLE0=The Way You Look Tonight
TTITLE1=Ball Bearing
TTITLE2=All The Things You Are
TTITLE3=Smoke Stack
TTITLE4=Black Pearls
TTITLE5=Lover, Come Back To Me
TTITLE6=Sweet Sapphire Blues
EXTD=
EXTT0=
EXTT1=
EXTT2=
EXTT3=
EXTT4=
EXTT5=
EXTT6=
PLAYORDER=
